<svg width="301" height="90" viewBox="0 0 301 90" fill="none" xmlns="http://www.w3.org/2000/svg">
<rect width="301" height="90" fill="white"/>
<path d="M115.475 31.872H120.587V57H117.311V35.328H117.239L108.383 57H104.999L96.1067 35.328H96.0707V57H92.7947V31.872H97.9067L106.655 53.364H106.727L115.475 31.872ZM127.24 39.648C129.328 38.736 131.56 38.28 133.936 38.28C136.336 38.28 138.172 38.976 139.444 40.368C140.716 41.76 141.352 43.428 141.352 45.372V57H138.472L138.076 54.696H137.968C136.24 56.472 134.02 57.36 131.308 57.36C129.676 57.36 128.284 56.868 127.132 55.884C126.004 54.9 125.44 53.556 125.44 51.852C125.44 50.148 126.136 48.768 127.528 47.712C128.944 46.656 131.008 46.128 133.72 46.128H138.076V45.84C138.076 44.256 137.68 43.116 136.888 42.42C136.12 41.724 134.776 41.376 132.856 41.376C130.936 41.376 129.136 41.784 127.456 42.6H127.24V39.648ZM138.076 51.78V48.756H134.152C130.528 48.756 128.716 49.716 128.716 51.636C128.716 53.532 129.988 54.48 132.532 54.48C133.588 54.48 134.608 54.228 135.592 53.724C136.576 53.196 137.404 52.548 138.076 51.78ZM163.085 38.64L152.033 65.28H148.721L151.817 57.288L144.221 38.64H147.749L153.509 53.148H153.653L159.557 38.64H163.085ZM172.38 57.36C170.388 57.36 168.816 56.688 167.664 55.344C166.512 54 165.936 52.32 165.936 50.304V38.64H169.212V49.944C169.212 52.872 170.532 54.336 173.172 54.336C175.26 54.336 177.228 53.184 179.076 50.88V38.64H182.352V57H179.472L179.076 54.696V54.156H179.004C177.06 56.292 174.852 57.36 172.38 57.36ZM198.061 33.96C197.173 33.648 196.297 33.492 195.433 33.492C194.593 33.492 193.921 33.72 193.417 34.176C192.937 34.632 192.697 35.46 192.697 36.66V38.64H198.313V41.448H192.697V57H189.421V41.448H186.073V38.64H189.421V36.552C189.421 34.464 189.949 32.916 191.005 31.908C192.085 30.876 193.297 30.36 194.641 30.36C196.009 30.36 197.233 30.66 198.313 31.26V33.96H198.061ZM200.613 47.82C200.613 44.964 201.453 42.66 203.133 40.908C204.813 39.156 207.033 38.28 209.793 38.28C212.577 38.28 214.809 39.156 216.489 40.908C218.193 42.66 219.045 44.964 219.045 47.82C219.045 50.676 218.193 52.98 216.489 54.732C214.809 56.484 212.577 57.36 209.793 57.36C207.033 57.36 204.813 56.484 203.133 54.732C201.453 52.98 200.613 50.676 200.613 47.82ZM205.653 52.752C206.853 53.832 208.245 54.372 209.829 54.372C211.413 54.372 212.793 53.832 213.969 52.752C215.169 51.648 215.769 50.004 215.769 47.82C215.769 45.612 215.169 43.968 213.969 42.888C212.793 41.808 211.413 41.268 209.829 41.268C208.245 41.268 206.853 41.808 205.653 42.888C204.477 43.968 203.889 45.612 203.889 47.82C203.889 50.004 204.477 51.648 205.653 52.752ZM222.515 47.82C222.515 44.964 223.355 42.66 225.035 40.908C226.715 39.156 228.935 38.28 231.695 38.28C234.479 38.28 236.711 39.156 238.391 40.908C240.095 42.66 240.947 44.964 240.947 47.82C240.947 50.676 240.095 52.98 238.391 54.732C236.711 56.484 234.479 57.36 231.695 57.36C228.935 57.36 226.715 56.484 225.035 54.732C223.355 52.98 222.515 50.676 222.515 47.82ZM227.555 52.752C228.755 53.832 230.147 54.372 231.731 54.372C233.315 54.372 234.695 53.832 235.871 52.752C237.071 51.648 237.671 50.004 237.671 47.82C237.671 45.612 237.071 43.968 235.871 42.888C234.695 41.808 233.315 41.268 231.731 41.268C230.147 41.268 228.755 41.808 227.555 42.888C226.379 43.968 225.791 45.612 225.791 47.82C225.791 50.004 226.379 51.648 227.555 52.752ZM247.009 40.872C248.761 39.144 250.801 38.28 253.129 38.28C255.457 38.28 257.473 39.168 259.177 40.944H259.285V30.72H262.561V57H259.681L259.285 54.696H259.177C257.473 56.472 255.457 57.36 253.129 57.36C250.801 57.36 248.761 56.496 247.009 54.768C245.281 53.04 244.417 50.724 244.417 47.82C244.417 44.916 245.281 42.6 247.009 40.872ZM253.597 54.3C255.757 54.3 257.653 53.4 259.285 51.6V44.04C257.653 42.24 255.757 41.34 253.597 41.34C251.821 41.34 250.393 41.904 249.313 43.032C248.233 44.16 247.693 45.756 247.693 47.82C247.693 49.884 248.233 51.48 249.313 52.608C250.393 53.736 251.821 54.3 253.597 54.3ZM274.904 41.268C273.368 41.268 272.228 41.508 271.484 41.988C270.764 42.444 270.404 43.032 270.404 43.752C270.404 44.448 270.776 44.988 271.52 45.372C272.264 45.756 273.164 46.068 274.22 46.308C275.3 46.524 276.368 46.8 277.424 47.136C278.48 47.472 279.38 48.048 280.124 48.864C280.868 49.68 281.24 50.796 281.24 52.212C281.24 53.628 280.628 54.84 279.404 55.848C278.204 56.856 276.404 57.36 274.004 57.36C271.628 57.36 269.456 56.82 267.488 55.74V52.608H267.668C269.612 53.76 271.748 54.336 274.076 54.336C276.74 54.336 278.072 53.484 278.072 51.78C278.072 51.228 277.7 50.784 276.956 50.448C276.212 50.088 275.312 49.788 274.256 49.548C273.2 49.308 272.144 49.02 271.088 48.684C270.032 48.348 269.132 47.784 268.388 46.992C267.644 46.2 267.272 45.192 267.272 43.968C267.272 42.288 267.872 40.92 269.072 39.864C270.296 38.808 271.952 38.28 274.04 38.28C276.128 38.28 278.072 38.616 279.872 39.288V42.276H279.62C278.012 41.604 276.44 41.268 274.904 41.268Z" fill="#fff"/>
<path d="M72.6055 28.921L57.1186 20.0964C55.8424 19.3701 54.3993 18.9882 52.9309 18.9882C51.4625 18.9882 50.0194 19.3701 48.7432 20.0964L47.8714 20.5913L33.2639 28.921C31.969 29.6588 30.8924 30.7261 30.1435 32.0146C29.3946 33.3031 29.0001 34.7668 29 36.2571V57.8543C29 59.6132 29.6987 61.3 30.9424 62.5437C32.1861 63.7874 33.8729 64.4861 35.6318 64.4861H46.9234C48.2158 64.4861 49.4553 63.9727 50.3691 63.0589C51.283 62.145 51.7964 60.9056 51.7964 59.6132V57.9038C51.7964 57.5231 51.7964 57.1424 51.8421 56.7617C51.9753 55.2008 51.9334 51.2644 48.7546 48.0893C45.0961 44.4308 40.4439 44.9257 39.5454 45.0437C39.2111 45.0944 38.9018 45.2507 38.6628 45.4897C38.4237 45.7288 38.2674 46.0381 38.2168 46.3724C38.0797 47.267 37.5886 51.923 41.2624 55.5815C43.1182 57.4167 45.5782 58.5141 48.1835 58.669C48.3078 58.6777 48.424 58.7333 48.5089 58.8244C48.5937 58.9156 48.6407 59.0356 48.6404 59.1601V59.5941C48.6434 59.8208 48.6012 60.0458 48.5161 60.2559C48.4309 60.466 48.3047 60.657 48.1448 60.8177C47.9848 60.9783 47.7944 61.1054 47.5847 61.1915C47.3749 61.2775 47.1501 61.3208 46.9234 61.3187H35.6318C34.714 61.3187 33.8338 60.9541 33.1848 60.3051C32.5358 59.6561 32.1712 58.7759 32.1712 57.8581V36.2647C32.173 35.3359 32.4204 34.424 32.8885 33.6217C33.3565 32.8193 34.0285 32.1551 34.8362 31.6963L49.4513 23.3666L50.3231 22.8679C51.119 22.415 52.019 22.1768 52.9347 22.1768C53.8504 22.1768 54.7504 22.415 55.5463 22.8679L71.0332 31.6963C71.8399 32.1563 72.511 32.8208 72.9789 33.6228C73.4468 34.4249 73.6949 35.3362 73.6981 36.2647V57.8543C73.6981 58.7721 73.3335 59.6523 72.6846 60.3013C72.0356 60.9503 71.1554 61.3149 70.2376 61.3149H58.9384C58.7149 61.3149 58.4936 61.2709 58.2871 61.1854C58.0807 61.0998 57.8931 60.9745 57.735 60.8165C57.577 60.6584 57.4517 60.4709 57.3662 60.2644C57.2806 60.0579 57.2366 59.8366 57.2366 59.6132V59.1792C57.2363 59.0546 57.2833 58.9347 57.3681 58.8435C57.453 58.7523 57.5692 58.6967 57.6935 58.6881C60.2988 58.5331 62.7588 57.4357 64.6146 55.6006C68.277 51.942 67.782 47.2861 67.6602 46.3914C67.6096 46.0571 67.4533 45.7478 67.2142 45.5088C66.9752 45.2697 66.6659 45.1134 66.3316 45.0628C65.4331 44.9257 60.7771 44.4308 57.1262 48.1084C53.9474 51.2834 53.9055 55.2199 54.0349 56.7846C54.0692 57.1653 54.0806 57.546 54.0806 57.9267V59.636C54.0806 60.9284 54.594 62.1679 55.5079 63.0817C56.4217 63.9956 57.6612 64.509 58.9536 64.509H70.2528C71.1243 64.507 71.9869 64.3332 72.7913 63.9976C73.5956 63.662 74.3259 63.1712 74.9404 62.5531C75.555 61.9351 76.0416 61.202 76.3726 60.3957C76.7036 59.5895 76.8724 58.7259 76.8694 57.8543V36.2647C76.8691 34.7735 76.4745 33.3088 75.7257 32.0191C74.9769 30.7294 73.9005 29.6606 72.6055 28.921ZM41.35 48.7784C41.3416 48.6979 41.3513 48.6165 41.3784 48.5401C41.4055 48.4638 41.4492 48.3945 41.5065 48.3372C41.5638 48.28 41.6331 48.2362 41.7094 48.2091C41.7857 48.1821 41.8671 48.1723 41.9476 48.1807C43.6741 48.3397 45.2904 49.0979 46.5163 50.3238C47.7423 51.5497 48.5005 53.166 48.6594 54.8925C48.6685 54.9732 48.6593 55.0549 48.6325 55.1315C48.6056 55.2082 48.5619 55.2778 48.5045 55.3352C48.4471 55.3927 48.3774 55.4364 48.3008 55.4632C48.2241 55.49 48.1424 55.4993 48.0617 55.4902C46.3348 55.3326 44.7176 54.5749 43.4914 53.3487C42.2652 52.1225 41.5075 50.5054 41.35 48.7784ZM59.3533 50.3279C60.585 49.1097 62.1978 48.3516 63.9217 48.1807C64.0024 48.1716 64.0841 48.1808 64.1608 48.2076C64.2374 48.2345 64.3071 48.2782 64.3645 48.3356C64.4219 48.3931 64.4657 48.4627 64.4925 48.5393C64.5193 48.616 64.5285 48.6977 64.5194 48.7784C64.3619 50.5054 63.6042 52.1225 62.378 53.3487C61.1518 54.5749 59.5346 55.3326 57.8077 55.4902C57.727 55.4993 57.6453 55.49 57.5686 55.4632C57.492 55.4364 57.4223 55.3927 57.3649 55.3352C57.3075 55.2778 57.2637 55.2082 57.2369 55.1315C57.2101 55.0549 57.2009 54.9732 57.21 54.8925C57.3815 53.1728 58.1381 51.5642 59.3533 50.3355V50.3279Z" fill="#fff"/>
</svg>
